<?xml version="1.0" encoding="UTF-8"?> <!-- Generator: Adobe Illustrator 16.0.0, SVG Export Plug-In . SVG Version: 6.00 Build 0) --> <svg xmlns="http://www.w3.org/2000/svg" xmlns:xlink="http://www.w3.org/1999/xlink" id="Layer_1" x="0px" y="0px" width="168.371px" height="53.65px" viewBox="0 0 168.371 53.65" style="enable-background:new 0 0 168.371 53.65;" xml:space="preserve"> <g> <linearGradient id="SVGID_1_" gradientUnits="userSpaceOnUse" x1="0" y1="26.8247" x2="54.23" y2="26.8247"> <stop offset="0" style="stop-color:#7E37C4"></stop> <stop offset="1" style="stop-color:#7453DA"></stop> </linearGradient> <path style="fill-rule:evenodd;clip-rule:evenodd;fill:url(#SVGID_1_);" d="M27.11,44.71v-8.94c5,0,9.04-4.011,9.04-8.94 c0-4.95-4.04-8.95-9.04-8.95V8.94c9.99,0,18.08,8.01,18.08,17.89C45.19,36.701,37.1,44.71,27.11,44.71z M24.65,51.1 C12.21,49.871,2.46,39.451,2.46,26.83c0-12.64,9.75-23.05,22.19-24.28V51.1z M27.11,0C12.14,0,0,12.01,0,26.83 c0,14.81,12.14,26.82,27.11,26.82c14.98,0,27.12-12.01,27.12-26.82C54.23,12.01,42.09,0,27.11,0z"></path> <path style="fill-rule:evenodd;clip-rule:evenodd;fill:#FFFFFF;" d="M66.92,28.05c0,1.619,0.44,2.939,1.32,3.959 c0.9,1.031,2.04,1.551,3.41,1.551c1.46,0,2.64-0.5,3.54-1.5c0.91-1.03,1.36-2.34,1.36-3.92c0-1.59-0.45-2.9-1.36-3.93 c-0.9-1.01-2.07-1.51-3.51-1.51c-1.36,0-2.49,0.51-3.41,1.53C67.37,25.26,66.92,26.53,66.92,28.05z M76.3,9.56h3.97v27H76.3v-1.77 c-1.56,1.51-3.32,2.26-5.29,2.26c-2.34,0-4.28-0.84-5.83-2.541c-1.53-1.719-2.3-3.879-2.3-6.459c0-2.53,0.77-4.63,2.3-6.33 c1.52-1.7,3.44-2.55,5.74-2.55c2.01,0,3.8,0.81,5.38,2.43V9.56z"></path> <path style="fill-rule:evenodd;clip-rule:evenodd;fill:#FFFFFF;" d="M84.09,36.56h3.951V19.64H84.09V36.56z M83.49,14.94 c0-0.68,0.25-1.27,0.76-1.77c0.5-0.5,1.1-0.75,1.8-0.75c0.72,0,1.33,0.25,1.83,0.75c0.51,0.49,0.76,1.08,0.76,1.79 s-0.25,1.31-0.76,1.81c-0.49,0.49-1.09,0.74-1.811,0.74c-0.71,0-1.32-0.25-1.82-0.74C83.74,16.27,83.49,15.66,83.49,14.94z"></path> <path style="fill-rule:evenodd;clip-rule:evenodd;fill:#FFFFFF;" d="M94.91,28.05c0,1.689,0.461,3.029,1.371,4.01 c0.939,1,2.18,1.5,3.709,1.5c1.551,0,2.78-0.49,3.711-1.48c0.92-0.979,1.379-2.3,1.379-3.939c0-1.65-0.459-2.96-1.379-3.95 c-0.94-0.99-2.17-1.49-3.711-1.49c-1.51,0-2.729,0.5-3.67,1.49C95.38,25.19,94.91,26.47,94.91,28.05z M90.871,27.98 c0-2.44,0.89-4.52,2.66-6.24c1.76-1.71,3.92-2.57,6.459-2.57c2.551,0,4.721,0.86,6.5,2.59c1.76,1.73,2.641,3.85,2.641,6.361 c0,2.539-0.891,4.659-2.66,6.379c-1.78,1.701-3.96,2.551-6.551,2.551c-2.56,0-4.709-0.87-6.449-2.61 C91.74,32.73,90.871,30.58,90.871,27.98z"></path> <path style="fill:#FFFFFF;" d="M112.01,19.64h3.95v1.51c0.729-0.75,1.369-1.27,1.93-1.54c0.58-0.29,1.26-0.44,2.04-0.44 c1.04,0,2.13,0.34,3.271,1.01l-1.811,3.58c-0.75-0.54-1.48-0.8-2.2-0.8c-2.149,0-3.229,1.61-3.229,4.83v8.78h-3.95V19.64z"></path> <path style="fill-rule:evenodd;clip-rule:evenodd;fill:#FFFFFF;" d="M127.74,28.05c0,1.619,0.44,2.939,1.32,3.959 c0.9,1.031,2.029,1.551,3.4,1.551c1.47,0,2.649-0.5,3.55-1.5c0.899-1.03,1.35-2.34,1.35-3.92c0-1.59-0.45-2.9-1.35-3.93 c-0.9-1.01-2.07-1.51-3.511-1.51c-1.359,0-2.489,0.51-3.41,1.53C128.19,25.26,127.74,26.53,127.74,28.05z M137.121,19.64h3.969 v16.92h-3.969v-1.77c-1.631,1.51-3.381,2.26-5.25,2.26c-2.371,0-4.32-0.84-5.871-2.541c-1.529-1.719-2.299-3.879-2.299-6.459 c0-2.541,0.77-4.65,2.299-6.34c1.541-1.69,3.461-2.54,5.761-2.54c1.989,0,3.78,0.81,5.36,2.43V19.64z"></path> <path style="fill:#FFFFFF;" d="M144.91,19.64h3.95v1.56c0.761-0.78,1.41-1.32,1.95-1.59c0.57-0.29,1.29-0.44,2.16-0.44 c1.93,0,3.46,0.83,4.58,2.5c1.25-1.67,2.93-2.5,5.05-2.5c3.851,0,5.771,2.31,5.771,6.93v10.47h-3.961v-9.41 c0-1.62-0.199-2.76-0.6-3.44c-0.41-0.68-1.09-1.02-2.02-1.02c-1.09,0-1.881,0.4-2.381,1.21c-0.5,0.82-0.75,2.12-0.75,3.91v8.75 h-3.97v-9.35c0-3.02-0.88-4.52-2.63-4.52c-1.12,0-1.93,0.41-2.439,1.23c-0.511,0.82-0.761,2.12-0.761,3.89v8.75h-3.95V19.64z"></path> </g> </svg> 