<?xml version="1.0" encoding="UTF-8" standalone="no"?>
<svg
   xmlns:dc="http://purl.org/dc/elements/1.1/"
   xmlns:cc="http://creativecommons.org/ns#"
   xmlns:rdf="http://www.w3.org/1999/02/22-rdf-syntax-ns#"
   xmlns:svg="http://www.w3.org/2000/svg"
   xmlns="http://www.w3.org/2000/svg"
   xmlns:sodipodi="http://sodipodi.sourceforge.net/DTD/sodipodi-0.dtd"
   xmlns:inkscape="http://www.inkscape.org/namespaces/inkscape"
   id="Layer_1"
   x="0px"
   y="0px"
   width="54.099998"
   height="53.5"
   viewBox="0 0 54.099997 53.499998"
   xml:space="preserve"
   version="1.1"
   sodipodi:docname="elektronik.svg"
   inkscape:version="1.0.2 (e86c870879, 2021-01-15)"><metadata
   id="metadata28"><rdf:RDF><cc:Work
       rdf:about=""><dc:format>image/svg+xml</dc:format><dc:type
         rdf:resource="http://purl.org/dc/dcmitype/StillImage" /><dc:title></dc:title></cc:Work></rdf:RDF></metadata><defs
   id="defs26"> <linearGradient
   id="SVGID_1_"
   gradientUnits="userSpaceOnUse"
   x1="0"
   y1="26.824699"
   x2="54.23"
   y2="26.824699"> <stop
   offset="0"
   style="stop-color:#7E37C4"
   id="stop2" /> <stop
   offset="1"
   style="stop-color:#7453DA"
   id="stop4" /> </linearGradient>        </defs><sodipodi:namedview
   pagecolor="#ffffff"
   bordercolor="#666666"
   borderopacity="1"
   objecttolerance="10"
   gridtolerance="10"
   guidetolerance="10"
   inkscape:pageopacity="0"
   inkscape:pageshadow="2"
   inkscape:window-width="1578"
   inkscape:window-height="943"
   id="namedview24"
   showgrid="false"
   inkscape:zoom="7.8101335"
   inkscape:cx="84.185501"
   inkscape:cy="26.825001"
   inkscape:window-x="72"
   inkscape:window-y="27"
   inkscape:window-maximized="0"
   inkscape:current-layer="Layer_1" /> <path
   style="clip-rule:evenodd;fill:url(#SVGID_1_);fill-rule:evenodd"
   d="m 27.11,44.71 v -8.94 c 5,0 9.04,-4.011 9.04,-8.94 0,-4.95 -4.04,-8.95 -9.04,-8.95 V 8.94 c 9.99,0 18.08,8.01 18.08,17.89 0,9.871 -8.09,17.88 -18.08,17.88 z M 24.65,51.1 C 12.21,49.871 2.46,39.451 2.46,26.83 2.46,14.19 12.21,3.78 24.65,2.55 Z M 27.11,0 C 12.14,0 0,12.01 0,26.83 0,41.64 12.14,53.65 27.11,53.65 42.09,53.65 54.23,41.64 54.23,26.83 54.23,12.01 42.09,0 27.11,0 Z"
   id="path7" /> </svg>
